<svg xmlns="http://www.w3.org/2000/svg" xmlns:xlink="http://www.w3.org/1999/xlink" width="100" zoomAndPan="magnify" viewBox="0 0 75 74.999997" height="100" preserveAspectRatio="xMidYMid meet" version="1.0"><defs><clipPath id="0d7e97dd51"><path d="M 52 48 L 73.617188 48 L 73.617188 75 L 52 75 Z M 52 48 " clip-rule="nonzero"/></clipPath><clipPath id="50c715bc92"><path d="M 5 0.0507812 L 35 0.0507812 L 35 30 L 5 30 Z M 5 0.0507812 " clip-rule="nonzero"/></clipPath><clipPath id="fd513b2cd4"><path d="M 1.617188 25 L 12 25 L 12 45 L 1.617188 45 Z M 1.617188 25 " clip-rule="nonzero"/></clipPath></defs><path fill="#ffffff" d="M 28.859375 69.28125 C 23.441406 69.28125 18.757812 68.109375 15.101562 65.769531 C 10.269531 62.695312 7.195312 60.792969 5.4375 59.769531 C 2.660156 58.304688 1.925781 55.960938 2.21875 54.351562 C 2.660156 52.890625 3.976562 52.011719 5.585938 52.011719 C 6.316406 52.011719 7.195312 52.15625 8.074219 52.597656 L 20.367188 57.425781 C 20.515625 57.425781 23.003906 58.304688 26.222656 58.304688 C 29.152344 58.304688 31.640625 57.574219 33.835938 56.253906 C 36.03125 54.9375 37.203125 52.597656 36.910156 52.15625 C 36.910156 52.15625 36.910156 52.15625 36.46875 52.15625 C 36.175781 52.15625 35.589844 52.15625 34.714844 52.449219 C 31.640625 53.472656 29.003906 53.914062 27.101562 53.914062 C 23.296875 53.914062 22.855469 52.304688 22.710938 51.570312 C 22.566406 50.109375 24.027344 48.644531 26.371094 48.203125 C 27.25 48.058594 32.519531 46.007812 35.882812 44.691406 C 35.882812 44.546875 39.105469 43.082031 44.082031 43.082031 C 48.910156 43.082031 53.449219 44.546875 57.839844 47.472656 L 61.792969 49.816406 L 51.691406 67.378906 C 50.082031 66.792969 48.03125 66.355469 45.984375 66.355469 C 44.8125 66.355469 43.789062 66.5 42.910156 66.792969 C 39.835938 67.964844 34.421875 69.28125 28.859375 69.28125 Z M 28.859375 69.28125 " fill-opacity="1" fill-rule="evenodd"/><g clip-path="url(#0d7e97dd51)"><path fill="#ffffff" d="M 60.621094 74.992188 C 60.472656 74.992188 60.328125 74.992188 60.179688 74.84375 L 52.863281 70.597656 C 52.425781 70.453125 52.277344 69.867188 52.425781 69.429688 L 64.28125 48.9375 C 64.425781 48.789062 64.574219 48.644531 64.867188 48.496094 C 65.011719 48.496094 65.304688 48.496094 65.449219 48.644531 L 72.769531 52.890625 C 73.207031 53.179688 73.355469 53.621094 73.207031 54.058594 L 61.351562 74.550781 C 61.207031 74.699219 61.058594 74.84375 60.765625 74.992188 C 60.765625 74.992188 60.621094 74.992188 60.621094 74.992188 Z M 60.621094 74.992188 " fill-opacity="1" fill-rule="evenodd"/></g><path fill="#ffffff" d="M 20.222656 40.300781 C 19.929688 40.300781 19.636719 40.15625 19.492188 39.863281 L 15.390625 33.421875 C 15.246094 33.128906 15.246094 32.835938 15.390625 32.542969 C 15.539062 32.25 15.832031 32.105469 16.125 32.105469 L 17.003906 32.105469 L 17.003906 30.785156 C 18.027344 30.933594 19.199219 31.078125 20.222656 31.078125 C 21.246094 31.078125 22.273438 30.933594 23.296875 30.785156 L 23.296875 32.105469 L 24.175781 32.105469 C 24.46875 32.105469 24.761719 32.25 24.90625 32.542969 C 25.054688 32.835938 25.054688 33.128906 24.90625 33.421875 L 20.953125 39.863281 C 20.808594 40.15625 20.515625 40.300781 20.222656 40.300781 Z M 20.222656 40.300781 " fill-opacity="1" fill-rule="evenodd"/><path fill="#ffffff" d="M 20.222656 20.25 C 18.464844 20.25 17.003906 18.785156 17.003906 17.027344 C 17.003906 16.589844 17.296875 16.148438 17.878906 16.148438 C 18.320312 16.148438 18.757812 16.589844 18.757812 17.027344 C 18.757812 17.90625 19.34375 18.492188 20.222656 18.492188 C 20.953125 18.492188 21.6875 17.90625 21.6875 17.027344 C 21.6875 16.003906 21.246094 15.855469 19.929688 15.5625 C 18.757812 15.273438 17.003906 14.832031 17.003906 12.34375 C 17.003906 10.441406 18.464844 8.976562 20.222656 8.976562 C 21.980469 8.976562 23.441406 10.441406 23.441406 12.34375 C 23.441406 12.785156 23.003906 13.222656 22.566406 13.222656 C 22.125 13.222656 21.6875 12.785156 21.6875 12.34375 C 21.6875 11.464844 20.953125 10.734375 20.222656 10.734375 C 19.34375 10.734375 18.757812 11.464844 18.757812 12.34375 C 18.757812 13.367188 19.199219 13.515625 20.367188 13.808594 C 21.6875 14.101562 23.441406 14.539062 23.441406 17.027344 C 23.441406 18.785156 21.980469 20.25 20.222656 20.25 Z M 20.222656 20.25 " fill-opacity="1" fill-rule="evenodd"/><path fill="#ffffff" d="M 20.222656 10.734375 C 19.785156 10.734375 19.34375 10.441406 19.34375 9.855469 L 19.34375 8.683594 C 19.34375 8.097656 19.785156 7.808594 20.222656 7.808594 C 20.660156 7.808594 21.101562 8.097656 21.101562 8.683594 L 21.101562 9.855469 C 21.101562 10.441406 20.660156 10.734375 20.222656 10.734375 Z M 20.222656 10.734375 " fill-opacity="1" fill-rule="evenodd"/><path fill="#ffffff" d="M 20.222656 21.566406 C 19.785156 21.566406 19.34375 21.125 19.34375 20.6875 L 19.34375 19.371094 C 19.34375 18.929688 19.785156 18.492188 20.222656 18.492188 C 20.660156 18.492188 21.101562 18.929688 21.101562 19.371094 L 21.101562 20.6875 C 21.101562 21.125 20.660156 21.566406 20.222656 21.566406 Z M 20.222656 21.566406 " fill-opacity="1" fill-rule="evenodd"/><g clip-path="url(#50c715bc92)"><path fill="#ffffff" d="M 20.222656 29.324219 C 12.171875 29.324219 5.585938 22.738281 5.585938 14.6875 C 5.585938 6.636719 12.171875 0.0507812 20.222656 0.0507812 C 28.273438 0.0507812 34.859375 6.636719 34.859375 14.6875 C 34.859375 22.738281 28.273438 29.324219 20.222656 29.324219 Z M 20.222656 24.199219 C 14.953125 24.199219 10.707031 19.957031 10.707031 14.6875 C 10.707031 9.417969 14.953125 5.171875 20.222656 5.171875 C 25.492188 5.171875 29.738281 9.417969 29.738281 14.6875 C 29.738281 19.957031 25.492188 24.199219 20.222656 24.199219 Z M 20.222656 24.199219 " fill-opacity="1" fill-rule="evenodd"/></g><g clip-path="url(#fd513b2cd4)"><path fill="#ffffff" d="M 6.609375 44.253906 C 6.316406 44.253906 6.023438 44.105469 5.878906 43.960938 L 1.78125 37.375 C 1.632812 37.226562 1.632812 36.789062 1.78125 36.496094 C 1.925781 36.203125 2.21875 36.054688 2.660156 36.054688 L 3.535156 36.054688 L 3.535156 26.835938 C 3.535156 26.394531 3.828125 25.957031 4.414062 25.957031 L 8.804688 25.957031 C 9.246094 25.957031 9.683594 26.394531 9.683594 26.835938 L 9.683594 36.054688 L 10.5625 36.054688 C 10.855469 36.054688 11.148438 36.203125 11.292969 36.496094 C 11.441406 36.789062 11.441406 37.226562 11.292969 37.375 L 7.34375 43.960938 C 7.195312 44.105469 6.902344 44.253906 6.609375 44.253906 Z M 6.609375 44.253906 " fill-opacity="1" fill-rule="evenodd"/></g><path fill="#ffffff" d="M 33.835938 44.253906 C 33.542969 44.253906 33.25 44.105469 33.101562 43.960938 L 29.003906 37.375 C 28.859375 37.226562 28.859375 36.789062 29.003906 36.496094 C 29.152344 36.203125 29.445312 36.054688 29.738281 36.054688 L 30.613281 36.054688 L 30.613281 26.835938 C 30.613281 26.394531 31.054688 25.957031 31.492188 25.957031 L 36.03125 25.957031 C 36.46875 25.957031 36.910156 26.394531 36.910156 26.835938 L 36.910156 36.054688 L 37.785156 36.054688 C 38.078125 36.054688 38.371094 36.203125 38.519531 36.496094 C 38.664062 36.789062 38.664062 37.226562 38.519531 37.375 L 34.566406 43.960938 C 34.421875 44.105469 34.128906 44.253906 33.835938 44.253906 Z M 33.835938 44.253906 " fill-opacity="1" fill-rule="evenodd"/></svg>