<svg xmlns="http://www.w3.org/2000/svg" xmlns:xlink="http://www.w3.org/1999/xlink" width="100" zoomAndPan="magnify" viewBox="0 0 75 74.999997" height="100" preserveAspectRatio="xMidYMid meet" version="1.0"><path fill="#ffffff" d="M 52.839844 42.40625 C 50.417969 42.40625 47.988281 42.949219 45.832031 44 C 45.820312 44 45.820312 44.011719 45.808594 44.011719 C 40.171875 46.738281 36.675781 52.320312 36.675781 58.566406 L 36.675781 58.632812 C 36.6875 58.699219 36.6875 58.777344 36.6875 58.84375 L 36.6875 58.976562 C 36.914062 67.671875 44.132812 74.714844 52.839844 74.714844 C 61.742188 74.714844 68.988281 67.472656 68.988281 58.566406 C 68.988281 49.648438 61.742188 42.40625 52.839844 42.40625 Z M 61.144531 56.558594 L 53.105469 64.601562 C 52.546875 65.160156 51.816406 65.425781 51.082031 65.425781 C 50.339844 65.425781 49.609375 65.160156 49.050781 64.601562 L 44.542969 60.082031 C 43.429688 58.964844 43.429688 57.15625 44.542969 56.027344 C 45.660156 54.910156 47.46875 54.910156 48.585938 56.027344 L 51.082031 58.527344 L 57.089844 52.503906 C 58.207031 51.390625 60.027344 51.390625 61.144531 52.503906 C 62.261719 53.636719 62.261719 55.441406 61.144531 56.558594 Z M 61.144531 56.558594 " fill-opacity="1" fill-rule="nonzero"/><path fill="#ffffff" d="M 30.839844 29.085938 C 38.789062 29.085938 45.25 22.628906 45.25 14.691406 C 45.261719 6.746094 38.789062 0.285156 30.839844 0.285156 C 22.90625 0.285156 16.445312 6.746094 16.445312 14.679688 C 16.445312 22.628906 22.917969 29.085938 30.839844 29.085938 Z M 30.839844 29.085938 " fill-opacity="1" fill-rule="nonzero"/><path fill="#ffffff" d="M 30.960938 58.566406 C 30.960938 57.703125 31 56.863281 31.121094 56.027344 C 31.757812 50.191406 34.707031 44.96875 39.269531 41.382812 C 40.515625 40.398438 41.886719 39.535156 43.363281 38.828125 C 43.894531 38.578125 44.4375 38.335938 44.996094 38.125 C 40.875 35.265625 35.917969 33.699219 30.867188 33.699219 C 17.164062 33.699219 6.011719 44.851562 6.011719 58.554688 L 6.011719 58.886719 C 6.011719 60.453125 7.289062 61.742188 8.871094 61.742188 L 31.199219 61.742188 C 31.066406 60.851562 30.988281 59.949219 30.972656 59.03125 C 30.960938 58.898438 30.960938 58.738281 30.960938 58.566406 Z M 30.960938 58.566406 " fill-opacity="1" fill-rule="nonzero"/></svg>