<svg xmlns="http://www.w3.org/2000/svg" xmlns:xlink="http://www.w3.org/1999/xlink" width="200" zoomAndPan="magnify" viewBox="0 0 150 37.5" height="50" preserveAspectRatio="xMidYMid meet" version="1.0"><defs><g/></defs><g fill="#ffffff" fill-opacity="1"><g transform="translate(1.017685, 29.373076)"><g><path d="M 1.046875 -11.234375 C 1.046875 -13.453125 1.523438 -15.425781 2.484375 -17.15625 C 3.441406 -18.894531 4.773438 -20.25 6.484375 -21.21875 C 8.203125 -22.1875 10.148438 -22.671875 12.328125 -22.671875 C 14.984375 -22.671875 17.257812 -21.96875 19.15625 -20.5625 C 21.050781 -19.15625 22.316406 -17.238281 22.953125 -14.8125 L 16.953125 -14.8125 C 16.503906 -15.75 15.867188 -16.460938 15.046875 -16.953125 C 14.234375 -17.441406 13.304688 -17.6875 12.265625 -17.6875 C 10.578125 -17.6875 9.210938 -17.097656 8.171875 -15.921875 C 7.128906 -14.753906 6.609375 -13.191406 6.609375 -11.234375 C 6.609375 -9.273438 7.128906 -7.707031 8.171875 -6.53125 C 9.210938 -5.363281 10.578125 -4.78125 12.265625 -4.78125 C 13.304688 -4.78125 14.234375 -5.023438 15.046875 -5.515625 C 15.867188 -6.003906 16.503906 -6.71875 16.953125 -7.65625 L 22.953125 -7.65625 C 22.316406 -5.226562 21.050781 -3.316406 19.15625 -1.921875 C 17.257812 -0.535156 14.984375 0.15625 12.328125 0.15625 C 10.148438 0.15625 8.203125 -0.328125 6.484375 -1.296875 C 4.773438 -2.265625 3.441406 -3.609375 2.484375 -5.328125 C 1.523438 -7.054688 1.046875 -9.023438 1.046875 -11.234375 Z M 1.046875 -11.234375 "/></g></g></g><g fill="#ffffff" fill-opacity="1"><g transform="translate(25.339289, 29.373076)"><g><path d="M 0.890625 -8.9375 C 0.890625 -10.769531 1.234375 -12.375 1.921875 -13.75 C 2.617188 -15.132812 3.5625 -16.195312 4.75 -16.9375 C 5.945312 -17.6875 7.28125 -18.0625 8.75 -18.0625 C 10 -18.0625 11.097656 -17.804688 12.046875 -17.296875 C 12.992188 -16.785156 13.722656 -16.117188 14.234375 -15.296875 L 14.234375 -17.8125 L 19.703125 -17.8125 L 19.703125 0 L 14.234375 0 L 14.234375 -2.515625 C 13.703125 -1.691406 12.960938 -1.023438 12.015625 -0.515625 C 11.066406 -0.00390625 9.96875 0.25 8.71875 0.25 C 7.269531 0.25 5.945312 -0.125 4.75 -0.875 C 3.5625 -1.632812 2.617188 -2.707031 1.921875 -4.09375 C 1.234375 -5.488281 0.890625 -7.101562 0.890625 -8.9375 Z M 14.234375 -8.90625 C 14.234375 -10.269531 13.851562 -11.34375 13.09375 -12.125 C 12.34375 -12.914062 11.425781 -13.3125 10.34375 -13.3125 C 9.257812 -13.3125 8.335938 -12.921875 7.578125 -12.140625 C 6.828125 -11.367188 6.453125 -10.300781 6.453125 -8.9375 C 6.453125 -7.570312 6.828125 -6.488281 7.578125 -5.6875 C 8.335938 -4.894531 9.257812 -4.5 10.34375 -4.5 C 11.425781 -4.5 12.34375 -4.890625 13.09375 -5.671875 C 13.851562 -6.460938 14.234375 -7.539062 14.234375 -8.90625 Z M 14.234375 -8.90625 "/></g></g></g><g fill="#ffffff" fill-opacity="1"><g transform="translate(47.011684, 29.373076)"><g><path d="M 7.4375 -14.84375 C 8.070312 -15.820312 8.867188 -16.59375 9.828125 -17.15625 C 10.785156 -17.71875 11.851562 -18 13.03125 -18 L 13.03125 -12.21875 L 11.53125 -12.21875 C 10.164062 -12.21875 9.140625 -11.925781 8.453125 -11.34375 C 7.773438 -10.757812 7.4375 -9.734375 7.4375 -8.265625 L 7.4375 0 L 1.984375 0 L 1.984375 -17.8125 L 7.4375 -17.8125 Z M 7.4375 -14.84375 "/></g></g></g><g fill="#ffffff" fill-opacity="1"><g transform="translate(60.672631, 29.373076)"><g><path d="M 4.71875 -19.65625 C 3.757812 -19.65625 2.976562 -19.9375 2.375 -20.5 C 1.769531 -21.070312 1.46875 -21.769531 1.46875 -22.59375 C 1.46875 -23.445312 1.769531 -24.15625 2.375 -24.71875 C 2.976562 -25.28125 3.757812 -25.5625 4.71875 -25.5625 C 5.65625 -25.5625 6.425781 -25.28125 7.03125 -24.71875 C 7.644531 -24.15625 7.953125 -23.445312 7.953125 -22.59375 C 7.953125 -21.769531 7.644531 -21.070312 7.03125 -20.5 C 6.425781 -19.9375 5.65625 -19.65625 4.71875 -19.65625 Z M 7.4375 -17.8125 L 7.4375 0 L 1.984375 0 L 1.984375 -17.8125 Z M 7.4375 -17.8125 "/></g></g></g><g fill="#0097b2" fill-opacity="1"><g transform="translate(70.092774, 29.373076)"><g><path d="M 7.4375 -4.21875 L 14.59375 -4.21875 L 14.59375 0 L 1.984375 0 L 1.984375 -22.40625 L 7.4375 -22.40625 Z M 7.4375 -4.21875 "/></g></g></g><g fill="#0097b2" fill-opacity="1"><g transform="translate(85.317715, 29.373076)"><g><path d="M 10.09375 0.25 C 8.34375 0.25 6.769531 -0.117188 5.375 -0.859375 C 3.976562 -1.609375 2.878906 -2.671875 2.078125 -4.046875 C 1.285156 -5.429688 0.890625 -7.050781 0.890625 -8.90625 C 0.890625 -10.738281 1.289062 -12.347656 2.09375 -13.734375 C 2.90625 -15.128906 4.015625 -16.195312 5.421875 -16.9375 C 6.828125 -17.6875 8.40625 -18.0625 10.15625 -18.0625 C 11.894531 -18.0625 13.46875 -17.6875 14.875 -16.9375 C 16.28125 -16.195312 17.382812 -15.128906 18.1875 -13.734375 C 19 -12.347656 19.40625 -10.738281 19.40625 -8.90625 C 19.40625 -7.070312 18.992188 -5.457031 18.171875 -4.0625 C 17.359375 -2.675781 16.242188 -1.609375 14.828125 -0.859375 C 13.410156 -0.117188 11.832031 0.25 10.09375 0.25 Z M 10.09375 -4.46875 C 11.132812 -4.46875 12.019531 -4.847656 12.75 -5.609375 C 13.488281 -6.378906 13.859375 -7.476562 13.859375 -8.90625 C 13.859375 -10.332031 13.5 -11.425781 12.78125 -12.1875 C 12.070312 -12.957031 11.195312 -13.34375 10.15625 -13.34375 C 9.09375 -13.34375 8.207031 -12.960938 7.5 -12.203125 C 6.800781 -11.453125 6.453125 -10.351562 6.453125 -8.90625 C 6.453125 -7.476562 6.796875 -6.378906 7.484375 -5.609375 C 8.171875 -4.847656 9.039062 -4.46875 10.09375 -4.46875 Z M 10.09375 -4.46875 "/></g></g></g><g fill="#0097b2" fill-opacity="1"><g transform="translate(105.649547, 29.373076)"><g><path d="M 0.890625 -8.9375 C 0.890625 -10.769531 1.234375 -12.375 1.921875 -13.75 C 2.617188 -15.132812 3.5625 -16.195312 4.75 -16.9375 C 5.945312 -17.6875 7.28125 -18.0625 8.75 -18.0625 C 10 -18.0625 11.097656 -17.804688 12.046875 -17.296875 C 12.992188 -16.785156 13.722656 -16.117188 14.234375 -15.296875 L 14.234375 -17.8125 L 19.703125 -17.8125 L 19.703125 0 L 14.234375 0 L 14.234375 -2.515625 C 13.703125 -1.691406 12.960938 -1.023438 12.015625 -0.515625 C 11.066406 -0.00390625 9.96875 0.25 8.71875 0.25 C 7.269531 0.25 5.945312 -0.125 4.75 -0.875 C 3.5625 -1.632812 2.617188 -2.707031 1.921875 -4.09375 C 1.234375 -5.488281 0.890625 -7.101562 0.890625 -8.9375 Z M 14.234375 -8.90625 C 14.234375 -10.269531 13.851562 -11.34375 13.09375 -12.125 C 12.34375 -12.914062 11.425781 -13.3125 10.34375 -13.3125 C 9.257812 -13.3125 8.335938 -12.921875 7.578125 -12.140625 C 6.828125 -11.367188 6.453125 -10.300781 6.453125 -8.9375 C 6.453125 -7.570312 6.828125 -6.488281 7.578125 -5.6875 C 8.335938 -4.894531 9.257812 -4.5 10.34375 -4.5 C 11.425781 -4.5 12.34375 -4.890625 13.09375 -5.671875 C 13.851562 -6.460938 14.234375 -7.539062 14.234375 -8.90625 Z M 14.234375 -8.90625 "/></g></g></g><g fill="#0097b2" fill-opacity="1"><g transform="translate(127.321942, 29.373076)"><g><path d="M 0.890625 -8.9375 C 0.890625 -10.769531 1.234375 -12.375 1.921875 -13.75 C 2.617188 -15.132812 3.5625 -16.195312 4.75 -16.9375 C 5.945312 -17.6875 7.28125 -18.0625 8.75 -18.0625 C 9.914062 -18.0625 10.984375 -17.816406 11.953125 -17.328125 C 12.921875 -16.835938 13.679688 -16.179688 14.234375 -15.359375 L 14.234375 -23.625 L 19.703125 -23.625 L 19.703125 0 L 14.234375 0 L 14.234375 -2.546875 C 13.722656 -1.703125 12.992188 -1.023438 12.046875 -0.515625 C 11.097656 -0.00390625 10 0.25 8.75 0.25 C 7.28125 0.25 5.945312 -0.125 4.75 -0.875 C 3.5625 -1.632812 2.617188 -2.707031 1.921875 -4.09375 C 1.234375 -5.488281 0.890625 -7.101562 0.890625 -8.9375 Z M 14.234375 -8.90625 C 14.234375 -10.269531 13.851562 -11.34375 13.09375 -12.125 C 12.34375 -12.914062 11.425781 -13.3125 10.34375 -13.3125 C 9.257812 -13.3125 8.335938 -12.921875 7.578125 -12.140625 C 6.828125 -11.367188 6.453125 -10.300781 6.453125 -8.9375 C 6.453125 -7.570312 6.828125 -6.488281 7.578125 -5.6875 C 8.335938 -4.894531 9.257812 -4.5 10.34375 -4.5 C 11.425781 -4.5 12.34375 -4.890625 13.09375 -5.671875 C 13.851562 -6.460938 14.234375 -7.539062 14.234375 -8.90625 Z M 14.234375 -8.90625 "/></g></g></g></svg>