<svg xmlns="http://www.w3.org/2000/svg" xmlns:xlink="http://www.w3.org/1999/xlink" width="100" zoomAndPan="magnify" viewBox="0 0 75 74.999997" height="100" preserveAspectRatio="xMidYMid meet" version="1.0"><defs><clipPath id="b0780b6054"><path d="M 10.089844 0 L 64.839844 0 L 64.839844 75 L 10.089844 75 Z M 10.089844 0 " clip-rule="nonzero"/></clipPath></defs><g clip-path="url(#b0780b6054)"><path fill="#ffffff" d="M 37.457031 0 C 22.40625 0 10.203125 12.652344 10.203125 28.261719 C 10.203125 43.867188 20.101562 45 37.457031 75 C 54.761719 45 64.710938 43.875 64.710938 28.261719 C 64.710938 12.644531 52.511719 0 37.457031 0 Z M 37.457031 38.941406 C 36.769531 38.925781 36.089844 38.847656 35.414062 38.699219 C 34.742188 38.550781 34.089844 38.339844 33.460938 38.066406 C 32.828125 37.789062 32.230469 37.457031 31.664062 37.0625 C 31.097656 36.671875 30.578125 36.226562 30.101562 35.730469 C 29.621094 35.234375 29.195312 34.695312 28.824219 34.117188 C 28.453125 33.539062 28.140625 32.929688 27.886719 32.285156 C 27.636719 31.644531 27.449219 30.988281 27.324219 30.308594 C 27.203125 29.632812 27.148438 28.949219 27.160156 28.261719 C 27.148438 27.570312 27.203125 26.890625 27.328125 26.210938 C 27.449219 25.535156 27.636719 24.875 27.890625 24.234375 C 28.140625 23.59375 28.453125 22.984375 28.828125 22.40625 C 29.199219 21.828125 29.625 21.289062 30.101562 20.792969 C 30.582031 20.300781 31.101562 19.855469 31.667969 19.460938 C 32.234375 19.070312 32.832031 18.734375 33.460938 18.460938 C 34.09375 18.1875 34.746094 17.976562 35.417969 17.828125 C 36.089844 17.679688 36.769531 17.601562 37.457031 17.585938 C 38.144531 17.601562 38.828125 17.679688 39.5 17.828125 C 40.171875 17.976562 40.824219 18.1875 41.453125 18.460938 C 42.085938 18.734375 42.683594 19.070312 43.246094 19.460938 C 43.8125 19.855469 44.335938 20.300781 44.8125 20.792969 C 45.289062 21.289062 45.714844 21.828125 46.089844 22.40625 C 46.460938 22.984375 46.773438 23.59375 47.023438 24.234375 C 47.277344 24.875 47.464844 25.535156 47.589844 26.210938 C 47.710938 26.890625 47.765625 27.570312 47.753906 28.261719 C 47.765625 28.949219 47.710938 29.632812 47.589844 30.308594 C 47.46875 30.988281 47.28125 31.644531 47.027344 32.285156 C 46.773438 32.929688 46.464844 33.539062 46.089844 34.117188 C 45.71875 34.695312 45.292969 35.234375 44.816406 35.730469 C 44.335938 36.226562 43.816406 36.671875 43.25 37.0625 C 42.683594 37.457031 42.085938 37.789062 41.457031 38.066406 C 40.824219 38.339844 40.171875 38.550781 39.5 38.699219 C 38.828125 38.847656 38.144531 38.925781 37.457031 38.941406 Z M 37.457031 38.941406 " fill-opacity="1" fill-rule="nonzero"/></g></svg>