<svg xmlns="http://www.w3.org/2000/svg" xmlns:xlink="http://www.w3.org/1999/xlink" width="320" zoomAndPan="magnify" viewBox="0 0 240 239.999995" height="320" preserveAspectRatio="xMidYMid meet" version="1.0"><defs><clipPath id="640a9c0b50"><path d="M 84 84 L 156 84 L 156 156 L 84 156 Z M 84 84 " clip-rule="nonzero"/></clipPath><clipPath id="6b6da70b01"><path d="M 120 84 C 100.117188 84 84 100.117188 84 120 C 84 139.882812 100.117188 156 120 156 C 139.882812 156 156 139.882812 156 120 C 156 100.117188 139.882812 84 120 84 Z M 120 84 " clip-rule="nonzero"/></clipPath><clipPath id="de43f7021c"><path d="M 17.730469 21.175781 L 215.539062 21.175781 L 215.539062 219.121094 L 17.730469 219.121094 Z M 17.730469 21.175781 " clip-rule="nonzero"/></clipPath><clipPath id="0c1bdc06d2"><path d="M 0 149.414062 L 25.9375 149.414062 L 25.9375 167 L 0 167 Z M 0 149.414062 " clip-rule="nonzero"/></clipPath></defs><g clip-path="url(#640a9c0b50)"><g clip-path="url(#6b6da70b01)"><path fill="#66ffbf" d="M 84 84 L 156 84 L 156 156 L 84 156 Z M 84 84 " fill-opacity="1" fill-rule="nonzero"/></g></g><g clip-path="url(#de43f7021c)"><path fill="#45a7da" d="M 116.707031 21.175781 C 62.128906 21.175781 17.886719 65.488281 17.886719 120.148438 C 17.886719 174.8125 62.128906 219.121094 116.707031 219.121094 C 171.285156 219.121094 215.527344 174.8125 215.527344 120.148438 C 215.527344 65.488281 171.285156 21.175781 116.707031 21.175781 " fill-opacity="1" fill-rule="nonzero"/></g><path fill="#ffffff" d="M 206.105469 120.148438 C 206.105469 70.699219 166.082031 30.613281 116.707031 30.613281 C 67.335938 30.613281 27.3125 70.699219 27.3125 120.148438 C 27.3125 169.597656 67.335938 209.683594 116.707031 209.683594 C 166.082031 209.683594 206.105469 169.597656 206.105469 120.148438 " fill-opacity="1" fill-rule="nonzero"/><path fill="#b8bbb5" d="M 116.707031 33.3125 C 68.820312 33.3125 30.003906 72.1875 30.003906 120.148438 C 30.003906 168.109375 68.820312 206.988281 116.707031 206.988281 C 164.59375 206.988281 203.410156 168.109375 203.410156 120.148438 C 203.410156 72.1875 164.59375 33.3125 116.707031 33.3125 " fill-opacity="1" fill-rule="nonzero"/><path fill="#36a53f" d="M 190.140625 166.34375 L 36.367188 152.867188 C 49.269531 184.609375 80.378906 206.988281 116.707031 206.988281 C 147.644531 206.988281 174.792969 190.761719 190.140625 166.34375 " fill-opacity="1" fill-rule="nonzero"/><path fill="#b8bbb5" d="M 42.320312 157.875 L 172.636719 184.035156 C 166.164062 190.082031 161.507812 191.945312 155.40625 193.921875 L 42.320312 157.875 " fill-opacity="1" fill-rule="evenodd"/><path fill="#171b3e" d="M 155.214844 109.007812 L 153.570312 82.292969 L 162.601562 81.46875 L 162.601562 71.605469 L 94.886719 69.550781 L 69.851562 77.359375 L 70.074219 96.859375 L 0.492188 101.199219 L 2.546875 151.757812 L 139.207031 155.457031 L 159.316406 150.113281 L 155.214844 109.007812 " fill-opacity="1" fill-rule="evenodd"/><path fill="#171b3e" d="M 48.628906 185.402344 C 61.21875 184.808594 66.320312 175.335938 63.179688 167.074219 C 60.042969 158.8125 43.242188 153.199219 37.261719 155.480469 C 31.277344 157.757812 28.976562 166.304688 32.113281 174.566406 C 35.253906 182.832031 42.238281 185.703125 48.628906 185.402344 " fill-opacity="1" fill-rule="nonzero"/><path fill="#171b3e" d="M 27.847656 183.21875 C 41.074219 182.128906 42.136719 174.183594 39.398438 166.515625 C 36.664062 158.84375 23.152344 153.320312 17.9375 155.4375 C 12.722656 157.554688 10.710938 165.492188 13.449219 173.160156 C 16.1875 180.832031 22.238281 183.679688 27.847656 183.21875 " fill-opacity="1" fill-rule="nonzero"/><path fill="#171b3e" d="M 36.734375 144.238281 L 94.226562 149.625 L 94.265625 144.585938 C 94.265625 144.585938 87.242188 145.277344 86.292969 141.773438 C 85.34375 138.269531 86.957031 132.042969 88.617188 129.726562 C 90.28125 127.410156 92.277344 125.066406 92.277344 125.066406 L 92.847656 120.714844 C 92.847656 120.714844 92.917969 97.882812 96.175781 93.535156 C 99.433594 89.183594 120.570312 85.167969 130.261719 84.582031 C 139.953125 83.996094 167.996094 84.386719 175.566406 89.480469 C 183.140625 94.570312 185.113281 97.894531 187.394531 106 C 189.675781 114.105469 190.820312 120.753906 190.820312 120.753906 C 190.820312 120.753906 205.964844 125.429688 212.8125 129.484375 C 219.660156 133.535156 219.867188 137.589844 221.011719 142.785156 C 222.152344 147.976562 222.644531 150.445312 222.644531 150.445312 C 222.644531 150.445312 227.949219 150.839844 230.984375 155.433594 C 234.019531 160.027344 235.003906 169.15625 235.003906 169.15625 C 235.003906 169.15625 239.179688 168.695312 239.636719 174.457031 C 239.90625 177.828125 239.980469 179.070312 236.691406 182.148438 C 233.402344 185.226562 230.679688 186.679688 230.679688 186.679688 C 230.679688 186.679688 229.636719 191.910156 227.136719 195.777344 C 224.636719 199.644531 221.398438 202.261719 215.882812 202.710938 C 210.613281 203.140625 204.164062 204.390625 200.722656 200.640625 C 198.90625 198.660156 198.183594 196.570312 198.183594 196.570312 C 198.183594 196.570312 195.535156 197.089844 188.960938 197.945312 C 182.382812 198.808594 173.480469 198.023438 173.480469 198.023438 C 173.480469 198.023438 173.925781 201.871094 169.707031 205.449219 C 165.492188 209.027344 160.054688 209.960938 153.621094 209.890625 C 147.1875 209.820312 141.917969 208.992188 138.917969 204.054688 C 135.914062 199.113281 133.054688 189.164062 133.054688 189.164062 C 133.054688 189.164062 131.839844 190.167969 128.550781 191.097656 C 125.265625 192.027344 97.605469 186.015625 97.605469 186.015625 C 97.605469 186.015625 95.789062 184.246094 95.148438 182.71875 C 94.511719 181.195312 93.675781 180.152344 93.675781 180.152344 L 81.28125 185.914062 L 57.53125 182.519531 L 57.175781 176.757812 L 14.511719 170.53125 L 19.585938 151.851562 L 36.734375 144.238281 " fill-opacity="1" fill-rule="nonzero"/><path fill="#45a7da" d="M 100.210938 104.992188 C 100.210938 104.992188 97.351562 98.78125 99.726562 94.632812 C 102.007812 90.648438 103.441406 89.425781 108.09375 88.875 C 117.347656 87.777344 120.28125 95.121094 120.28125 95.121094 C 120.28125 95.121094 117.566406 94.308594 113.511719 95.476562 C 109.453125 96.640625 106.175781 99.113281 104.585938 100.351562 C 103 101.585938 100.210938 104.992188 100.210938 104.992188 " fill-opacity="1" fill-rule="nonzero"/><path fill="#45a7da" d="M 104.355469 103.550781 C 104.355469 103.550781 108.132812 99.757812 111.375 97.96875 C 117.347656 94.671875 118.425781 96.554688 120.472656 96.484375 C 122.519531 96.414062 126.890625 99.417969 126.890625 99.417969 C 126.890625 99.417969 122.765625 98.992188 119.800781 99.945312 C 116.839844 100.902344 117.898438 102.066406 113.773438 103.550781 C 109.644531 105.035156 104.355469 103.550781 104.355469 103.550781 " fill-opacity="1" fill-rule="nonzero"/><path fill="#ffffff" d="M 108.765625 106.988281 C 108.765625 106.988281 109.648438 107.5625 113.378906 105.976562 C 119.292969 103.457031 116.355469 102.328125 120.28125 101.402344 C 122.164062 100.960938 124.355469 101.828125 124.355469 101.828125 C 124.355469 101.828125 125.730469 105.640625 126.0625 108.546875 C 126.390625 111.457031 127.316406 117.304688 124.835938 119.789062 C 122.359375 122.269531 118.183594 121.710938 114.550781 120.765625 C 110.765625 119.78125 106.875 115.425781 106.875 115.425781 C 106.875 115.425781 105.144531 118.128906 102.78125 113.90625 C 101.476562 111.574219 100.023438 109.332031 101.707031 109.0625 C 103.390625 108.789062 105.957031 111.425781 105.957031 111.425781 C 105.957031 111.425781 106.546875 110.871094 106.667969 109.234375 C 106.789062 107.597656 108.765625 106.988281 108.765625 106.988281 " fill-opacity="1" fill-rule="nonzero"/><path fill="#45a7da" d="M 106.613281 117.378906 C 106.613281 117.378906 104.300781 117.15625 102.542969 117.835938 C 100.210938 118.734375 98.675781 121.882812 98.675781 121.882812 C 98.675781 121.882812 102.359375 121.457031 105.4375 122.578125 C 108.515625 123.699219 111.320312 128.566406 111.320312 128.566406 L 115.125 128.351562 C 115.125 128.351562 116.210938 128.203125 116.875 127.023438 C 118.132812 123.519531 116.605469 124.976562 114.492188 124.582031 C 112.378906 124.191406 110.667969 122.648438 109.582031 121.199219 C 108.496094 119.746094 106.613281 117.378906 106.613281 117.378906 " fill-opacity="1" fill-rule="nonzero"/><path fill="#45a7da" d="M 96.59375 123.304688 C 96.59375 123.304688 98.726562 122.460938 102.007812 123.0625 C 105.285156 123.667969 107.972656 125.84375 108.757812 126.722656 C 109.542969 127.597656 109.84375 128.566406 109.84375 128.566406 L 105.4375 129.019531 C 105.4375 129.019531 103.402344 126.78125 101.484375 126.390625 C 99.5625 125.996094 93.667969 127.566406 93.667969 127.566406 C 93.667969 127.566406 93.242188 126.722656 94.332031 125.238281 C 95.417969 123.757812 96.59375 123.304688 96.59375 123.304688 " fill-opacity="1" fill-rule="nonzero"/><path fill="#ffffff" d="M 103.6875 129.019531 C 103.6875 129.019531 102.421875 127.347656 99.5625 127.71875 C 96.703125 128.089844 94.40625 127.71875 92.605469 129.304688 C 90.804688 130.890625 89.054688 131.953125 89.152344 134.84375 C 89.242188 137.734375 86.824219 141.003906 89.402344 141.316406 C 91.976562 141.625 92.417969 142.609375 95.117188 142.574219 C 97.816406 142.546875 100.011719 142.769531 104.355469 142.273438 C 108.699219 141.777344 115.488281 137.21875 115.488281 137.21875 L 115.703125 135.570312 C 115.703125 135.570312 115.460938 135.191406 114.929688 133.96875 C 114.394531 132.746094 115.40625 131.871094 115.40625 131.871094 C 115.40625 131.871094 115.101562 131.527344 114.949219 130.761719 C 114.796875 130 114.492188 130.402344 114.492188 130.402344 C 114.492188 130.402344 113.09375 130.5 110.863281 130.6875 C 108.632812 130.878906 105.050781 130.636719 103.261719 130.332031 C 101.46875 130.023438 96.089844 131.015625 96.089844 131.015625 C 96.089844 131.015625 97.46875 129.300781 99.355469 129.019531 C 101.242188 128.738281 103.6875 129.019531 103.6875 129.019531 " fill-opacity="1" fill-rule="nonzero"/><path fill="#ffffff" d="M 117.347656 138.566406 C 117.347656 138.566406 116.007812 137.898438 116.089844 136.882812 C 116.175781 135.867188 117.09375 135.535156 117.09375 135.535156 C 117.09375 135.535156 116.316406 135.222656 115.996094 133.988281 C 115.675781 132.75 116.804688 132.0625 116.804688 132.0625 C 116.804688 132.0625 115.996094 132.085938 115.996094 130.554688 C 115.996094 129.019531 115.898438 128.566406 117.570312 128.566406 C 119.246094 128.566406 124.261719 128.269531 124.261719 128.269531 C 124.261719 128.269531 125.972656 129.792969 124.238281 130.828125 C 123.011719 131.554688 119.246094 131.597656 119.246094 131.597656 C 119.246094 131.597656 118.539062 132.171875 119.199219 132.484375 C 119.855469 132.796875 124.332031 132.453125 124.332031 132.453125 C 124.332031 132.453125 125.492188 132.859375 125.195312 133.738281 C 124.894531 134.617188 124.894531 134.945312 124.097656 135.132812 C 123.300781 135.320312 119.902344 135.335938 119.902344 135.335938 C 119.488281 135.609375 119.261719 135.835938 119.5 136.046875 C 119.738281 136.261719 124.492188 135.96875 124.492188 135.96875 C 124.492188 135.96875 125.277344 136.3125 125.261719 137.046875 C 125.25 137.777344 124.386719 138.269531 124.386719 138.269531 L 119.394531 138.269531 C 119.394531 138.269531 119.007812 138.601562 119.246094 138.855469 C 119.488281 139.109375 123.441406 138.976562 123.441406 138.976562 C 123.441406 138.976562 124.515625 139.703125 124.140625 140.367188 C 123.769531 141.03125 122.6875 141.515625 122.6875 141.515625 L 118.617188 141.90625 C 118.617188 141.90625 116.730469 142.03125 116.632812 140.160156 C 116.582031 139.226562 117.347656 138.566406 117.347656 138.566406 " fill-opacity="1" fill-rule="nonzero"/><path fill="#ffffff" d="M 117.347656 127.664062 C 117.347656 127.664062 117.785156 126.863281 118.0625 125.636719 C 118.339844 124.410156 118.527344 123.183594 119.265625 123.160156 C 120.003906 123.136719 121.136719 123.714844 121.160156 125.171875 C 121.183594 126.628906 120.28125 127.925781 120.28125 127.925781 C 120.28125 127.925781 120.097656 127.664062 119.171875 127.664062 C 118.25 127.664062 117.347656 127.664062 117.347656 127.664062 " fill-opacity="1" fill-rule="nonzero"/><path fill="#f03f1e" d="M 97.585938 146.171875 C 97.585938 146.171875 99.300781 145.496094 103.074219 145.019531 C 108.902344 144.285156 113.867188 141.253906 113.867188 141.253906 C 113.867188 141.253906 115.511719 142.542969 116.238281 142.96875 C 117.769531 143.871094 118.113281 143.367188 121.160156 143.25 C 124.207031 143.132812 126 142.28125 126.503906 140.730469 C 126.890625 139.542969 126.007812 138.53125 126.007812 138.53125 C 126.007812 138.53125 127.277344 137.03125 126.890625 136.367188 C 126.503906 135.703125 125.796875 134.976562 125.796875 134.976562 C 125.796875 134.976562 126.628906 134.269531 126.503906 133.457031 C 126.261719 131.867188 125.648438 131.492188 125.648438 131.492188 L 126.503906 130.152344 L 133.640625 129.960938 C 133.640625 129.960938 136.261719 128.59375 136.023438 123.738281 C 135.894531 121.144531 129.570312 98.15625 129.570312 98.15625 C 128.933594 96.550781 127.246094 95.746094 124.507812 95.746094 C 124.507812 95.746094 122.246094 92.84375 121.367188 91.925781 C 120.488281 91.007812 116.457031 88.675781 116.457031 88.675781 C 116.457031 88.675781 132.652344 86.453125 139.625 86.363281 C 146.597656 86.277344 165.910156 88.105469 171.285156 89.734375 C 176.660156 91.359375 179.628906 96.4375 179.628906 96.4375 C 179.628906 96.4375 170.460938 94.136719 164.847656 93.9375 C 158.941406 93.730469 139.875 93.546875 139.875 93.546875 C 139.875 93.546875 135.734375 94.050781 135.230469 97.359375 C 134.726562 100.667969 141.78125 122.703125 144.746094 124.890625 C 147.714844 127.078125 158.574219 124.15625 166.246094 123.65625 C 173.917969 123.160156 189.816406 123.160156 189.816406 123.160156 C 189.816406 123.160156 195.65625 124.992188 200.332031 127.003906 C 205.011719 129.019531 212.980469 133.886719 212.980469 133.886719 C 212.980469 133.886719 203.695312 134.109375 197.628906 134.179688 C 191.5625 134.253906 187.246094 133.59375 185.417969 138.425781 C 183.59375 143.257812 188.394531 176.5 188.394531 176.5 L 182.660156 177.492188 C 182.660156 177.492188 181.511719 162.632812 178.222656 157.957031 C 174.933594 153.285156 164.378906 145.777344 155.351562 145.089844 C 146.324219 144.398438 136.253906 146.234375 132.121094 150.546875 C 127.992188 154.859375 126.503906 164.085938 126.503906 164.085938 L 105.863281 161.789062 C 105.863281 161.789062 99.878906 160.554688 98.675781 157.136719 C 97.472656 153.722656 97.585938 146.171875 97.585938 146.171875 " fill-opacity="1" fill-rule="nonzero"/><path fill="#f03f1e" d="M 128.0625 165.527344 C 128.0625 165.527344 128.960938 154.765625 135.804688 150.90625 C 142.648438 147.046875 149.800781 146.574219 157.980469 148.621094 C 166.160156 150.671875 176.699219 160.355469 176.699219 160.355469 L 178.015625 164.410156 C 172.875 163.597656 168.320312 164.398438 164.351562 166.816406 L 166.789062 180.207031 C 166.789062 180.207031 163.484375 182.726562 160.890625 179.183594 C 158.296875 175.636719 158.769531 165.554688 155.148438 161.222656 C 151.53125 156.890625 143.824219 153.648438 139.972656 154.914062 C 136.117188 156.183594 134.417969 158.734375 132.761719 163.386719 C 131.675781 166.441406 131.558594 170.363281 131.558594 170.363281 L 128.0625 165.527344 " fill-opacity="1" fill-rule="nonzero"/><path fill="#f03f1e" d="M 222.585938 152.378906 C 222.585938 152.378906 224.875 152.074219 227.066406 154.011719 C 229.253906 155.949219 230.679688 158.425781 230.679688 158.425781 C 226.933594 157.335938 224.234375 157.628906 222.585938 159.300781 L 222.585938 152.378906 " fill-opacity="1" fill-rule="nonzero"/><path fill="#171b3e" d="M 213.882812 136.933594 L 193.214844 136.882812 C 193.214844 136.882812 190.566406 137.085938 189.246094 139.636719 C 187.921875 142.183594 191.636719 174.761719 191.636719 174.761719 C 191.636719 174.761719 198.519531 176.101562 207.453125 174.742188 C 216.386719 173.386719 219.734375 170.429688 219.734375 170.429688 C 219.734375 170.429688 218.820312 158.820312 218.359375 152.363281 C 217.902344 145.90625 217.289062 140.144531 217.289062 140.144531 C 217.289062 140.144531 216.882812 138.769531 216.273438 137.851562 C 215.664062 136.933594 213.882812 136.933594 213.882812 136.933594 " fill-opacity="1" fill-rule="nonzero"/><path fill="#b8bbb5" d="M 158.359375 182.128906 C 158.359375 182.128906 176.085938 183.394531 202.617188 179.296875 C 231.96875 174.761719 235.476562 172.164062 235.476562 172.164062 C 235.476562 172.164062 239.753906 173.832031 235.332031 180.109375 C 233.015625 183.40625 215.882812 189.160156 215.882812 189.160156 L 215.351562 181.074219 L 198.003906 184.132812 L 197.851562 191.234375 C 197.851562 191.234375 192.570312 193.046875 179.808594 193.550781 C 177.847656 193.628906 163.808594 193.84375 162.265625 190.367188 C 160.726562 186.894531 158.359375 182.128906 158.359375 182.128906 " fill-opacity="1" fill-rule="nonzero"/><path fill="#ffffff" d="M 173.859375 179.296875 C 176.15625 179.296875 178.015625 176.824219 178.015625 173.773438 C 178.015625 170.722656 176.15625 168.25 173.859375 168.25 C 171.566406 168.25 169.707031 170.722656 169.707031 173.773438 C 169.707031 176.824219 171.566406 179.296875 173.859375 179.296875 " fill-opacity="1" fill-rule="nonzero"/><path fill="#ffffff" d="M 226.632812 172.164062 C 228.867188 172.164062 230.679688 170.039062 230.679688 167.414062 C 230.679688 164.792969 228.867188 162.664062 226.632812 162.664062 C 224.398438 162.664062 222.585938 164.792969 222.585938 167.414062 C 222.585938 170.039062 224.398438 172.164062 226.632812 172.164062 " fill-opacity="1" fill-rule="nonzero"/><path fill="#b8bbb5" d="M 101.363281 164.253906 L 125.972656 167.359375 C 125.972656 167.359375 119.390625 168.335938 119.390625 176.589844 C 119.390625 184.84375 126.890625 189.160156 126.890625 189.160156 L 99.5625 184.050781 C 99.5625 184.050781 94.761719 181.074219 95.167969 173.125 C 95.589844 164.894531 101.363281 164.253906 101.363281 164.253906 " fill-opacity="1" fill-rule="nonzero"/><path fill="#f03f1e" d="M 59.515625 165.648438 L 76.609375 167.636719 L 78.515625 182.128906 L 60.789062 179.902344 L 59.515625 165.648438 " fill-opacity="1" fill-rule="nonzero"/><path fill="#b8bbb5" d="M 146.070312 199.691406 C 148.863281 199.335938 150.246094 192.152344 149.164062 183.644531 C 148.078125 175.140625 144.9375 168.53125 142.144531 168.890625 C 139.351562 169.246094 137.96875 176.433594 139.050781 184.9375 C 140.132812 193.445312 143.277344 200.050781 146.070312 199.691406 " fill-opacity="1" fill-rule="nonzero"/><path fill="#171b3e" d="M 120.25 106.914062 C 120.644531 106.753906 120.707031 105.988281 120.394531 105.203125 C 120.078125 104.417969 119.503906 103.910156 119.105469 104.070312 C 118.710938 104.226562 118.648438 104.992188 118.960938 105.777344 C 119.277344 106.5625 119.855469 107.074219 120.25 106.914062 " fill-opacity="1" fill-rule="nonzero"/><path fill="#171b3e" d="M 112.808594 109.042969 C 113.308594 108.917969 113.546875 108.175781 113.347656 107.382812 C 113.148438 106.589844 112.582031 106.050781 112.085938 106.179688 C 111.589844 106.304688 111.347656 107.046875 111.546875 107.839844 C 111.746094 108.628906 112.3125 109.167969 112.808594 109.042969 " fill-opacity="1" fill-rule="nonzero"/><path fill="#171b3e" d="M 116.535156 103.457031 C 116.535156 103.457031 117.519531 106.570312 118.761719 107.902344 C 120.007812 109.230469 121.472656 110.160156 121.472656 110.160156 L 119.710938 113.40625 L 116.195312 112.289062 L 119.925781 110.714844 C 119.925781 110.714844 118.101562 110.003906 117.347656 108.191406 C 116.785156 106.832031 116.535156 103.457031 116.535156 103.457031 " fill-opacity="1" fill-rule="nonzero"/><path fill="#171b3e" d="M 114.550781 114.402344 C 114.550781 114.402344 117.140625 115.320312 119.582031 114.734375 C 122.023438 114.152344 123.117188 112.828125 123.117188 112.828125 C 123.117188 112.828125 122.34375 116.636719 120.28125 117.34375 C 116.5625 118.625 114.550781 114.402344 114.550781 114.402344 " fill-opacity="1" fill-rule="nonzero"/><path fill="#171b3e" d="M 114.871094 112.8125 C 114.871094 112.8125 114.5625 114.210938 114.210938 114.519531 C 113.855469 114.832031 112.59375 115.242188 112.59375 115.242188 C 112.59375 115.242188 113.109375 115.933594 114.253906 115.183594 C 115.398438 114.433594 114.871094 112.8125 114.871094 112.8125 " fill-opacity="1" fill-rule="nonzero"/><path fill="#45a7da" d="M 128.0625 113.746094 L 131.921875 115.226562 C 131.921875 115.226562 132.914062 117.402344 133.433594 120.667969 C 133.953125 123.933594 132.972656 126.84375 131.144531 127.105469 C 129.3125 127.367188 126.042969 127.925781 126.042969 127.925781 C 126.042969 127.925781 125.414062 127.257812 124.421875 127.125 C 123.429688 126.996094 122.199219 127.335938 122.199219 127.335938 L 122.335938 125.484375 C 122.335938 125.484375 126.980469 127.085938 128.679688 124.582031 C 130.378906 122.082031 129.828125 119.71875 129.828125 119.71875 L 128.0625 113.746094 " fill-opacity="1" fill-rule="nonzero"/><path fill="#ffffff" d="M 147.53125 113.746094 C 147.53125 113.746094 147.085938 112.34375 148.660156 111.847656 C 150.238281 111.34375 151.105469 111.714844 151.105469 111.714844 C 151.105469 111.714844 151.105469 110.632812 152.632812 110.1875 C 154.15625 109.738281 155.441406 110.609375 155.441406 110.609375 C 155.441406 110.609375 155.441406 109.523438 156.941406 109.292969 C 158.4375 109.0625 159.675781 109.480469 160.28125 111.238281 C 160.882812 113 162.4375 116.46875 162.25 117.378906 C 162.066406 118.296875 160.972656 120.191406 159.734375 119.507812 C 158.492188 118.824219 158.914062 118.007812 158.886719 116.664062 C 158.859375 115.320312 156.390625 111.425781 156.390625 111.425781 C 156.390625 111.425781 154.917969 110.773438 155.3125 111.792969 C 155.707031 112.8125 157.703125 115.347656 157.886719 116.742188 C 158.070312 118.136719 158.125 119.636719 156.601562 119.824219 C 155.074219 120.007812 154.734375 118.679688 154.652344 117.378906 C 154.574219 116.082031 152.242188 111.703125 152.472656 112.8125 C 153 115.320312 153.972656 117.320312 153.894531 118.613281 C 153.8125 119.902344 153.367188 121.53125 152.078125 121.140625 C 150.789062 120.746094 150.84375 120.664062 150.449219 118.296875 C 150.054688 115.925781 149.582031 114.898438 149.003906 114.453125 C 148.425781 114.003906 147.53125 113.746094 147.53125 113.746094 " fill-opacity="1" fill-rule="nonzero"/><path fill="#ffffff" d="M 147.046875 115.257812 C 147.046875 115.257812 146.683594 117.421875 145.546875 117.902344 C 144.40625 118.378906 143.816406 118.21875 143.085938 116.214844 C 142.390625 114.300781 143.109375 113.402344 144.382812 113.746094 C 145.660156 114.09375 147.046875 115.257812 147.046875 115.257812 " fill-opacity="1" fill-rule="nonzero"/><path fill="#b8bbb5" d="M 144.429688 122.300781 C 144.429688 122.300781 145.046875 120.773438 145.953125 119.453125 C 146.863281 118.128906 148.710938 116.167969 148.710938 116.167969 L 149.960938 120.660156 C 149.960938 120.660156 148.730469 121.929688 148.300781 122.847656 C 147.867188 123.761719 147.472656 124.582031 147.472656 124.582031 C 147.472656 124.582031 146.546875 124.632812 145.613281 123.898438 C 144.679688 123.160156 144.429688 122.300781 144.429688 122.300781 " fill-opacity="1" fill-rule="nonzero"/><path fill="#b8bbb5" d="M 162.265625 112.167969 C 162.265625 112.167969 163.582031 111.40625 166.542969 112.8125 C 169.5 114.21875 173.480469 119.753906 173.480469 119.753906 L 169.277344 120.667969 C 169.277344 120.667969 168.3125 117.941406 166.402344 117.378906 C 164.496094 116.820312 163.582031 116.765625 163.582031 116.765625 C 163.582031 116.765625 163.554688 115.085938 163.195312 114.246094 C 162.839844 113.40625 162.265625 112.167969 162.265625 112.167969 " fill-opacity="1" fill-rule="nonzero"/><path fill="#f03f1e" d="M 178.015625 94.632812 C 178.015625 94.632812 183.765625 97.890625 185.589844 107.449219 C 186.457031 111.976562 187.523438 119.519531 187.523438 119.519531 L 183.59375 119.71875 C 183.59375 119.71875 182.457031 110.671875 181.746094 106.941406 C 180.964844 102.84375 178.015625 94.632812 178.015625 94.632812 " fill-opacity="1" fill-rule="nonzero"/><path fill="#b8bbb5" d="M 191.707031 144.277344 C 191.707031 144.277344 194.050781 144.15625 202.746094 144.03125 C 211.441406 143.90625 214.769531 142.601562 214.769531 142.601562 C 214.769531 142.601562 212.984375 145.761719 205.582031 146.132812 C 198.183594 146.503906 191.707031 144.277344 191.707031 144.277344 " fill-opacity="1" fill-rule="nonzero"/><path fill="#b8bbb5" d="M 192.570312 149.777344 C 192.570312 149.777344 199.476562 149.652344 204.289062 149.652344 C 209.097656 149.652344 214.769531 149.222656 214.769531 149.222656 C 214.769531 149.222656 213.292969 152.363281 206.386719 152.363281 C 199.476562 152.363281 192.570312 149.777344 192.570312 149.777344 " fill-opacity="1" fill-rule="nonzero"/><path fill="#b8bbb5" d="M 193.804688 156.324219 L 214.769531 155.433594 C 214.769531 155.433594 214.09375 158.363281 208.113281 158.421875 C 202.128906 158.484375 193.804688 156.324219 193.804688 156.324219 " fill-opacity="1" fill-rule="nonzero"/><path fill="#b8bbb5" d="M 193.804688 162.664062 C 194.914062 162.664062 215.882812 161.140625 215.882812 161.140625 C 215.882812 161.140625 215.511719 163.472656 207.925781 164.253906 C 200.339844 165.03125 193.804688 162.664062 193.804688 162.664062 " fill-opacity="1" fill-rule="nonzero"/><path fill="#171b3e" d="M 188.960938 136.273438 L 149.960938 127.105469 L 185.929688 140.730469 Z M 188.960938 136.273438 " fill-opacity="1" fill-rule="nonzero"/><path fill="#171b3e" d="M 134.355469 106.941406 C 134.355469 106.941406 139.214844 119.5 140.558594 124.03125 C 141.898438 128.566406 142.816406 146.65625 142.816406 146.65625 L 138.144531 148.167969 C 138.144531 148.167969 139.90625 133.546875 138.683594 127.105469 C 137.457031 120.667969 134.355469 106.941406 134.355469 106.941406 " fill-opacity="1" fill-rule="nonzero"/><path fill="#171b3e" d="M 118.101562 165.648438 C 118.101562 165.648438 111.609375 168.1875 111.609375 175.390625 C 111.609375 182.59375 117.347656 188.074219 117.347656 188.074219 L 114.492188 187.667969 C 114.492188 187.667969 109.910156 182.777344 109.453125 176.316406 C 108.726562 165.984375 118.101562 165.648438 118.101562 165.648438 " fill-opacity="1" fill-rule="nonzero"/><path fill="#171b3e" d="M 109.582031 164.253906 C 109.582031 164.253906 102.886719 166.851562 102.886719 174.054688 C 102.886719 181.253906 108.828125 186.679688 108.828125 186.679688 L 105.972656 186.273438 C 105.972656 186.273438 101.1875 181.339844 100.734375 174.875 C 100.007812 164.542969 109.582031 164.253906 109.582031 164.253906 " fill-opacity="1" fill-rule="nonzero"/><path fill="#f03f1e" d="M 52.851562 164.410156 L 48.648438 154.914062 L 34.269531 153.304688 L 34.417969 151.628906 L 49.09375 153.210938 L 54.730469 163.433594 L 52.851562 164.410156 " fill-opacity="1" fill-rule="nonzero"/><path fill="#b8bbb5" d="M 43.722656 178.519531 C 46.148438 177.746094 46.847656 173.136719 45.285156 168.226562 C 43.71875 163.3125 40.488281 159.960938 38.0625 160.734375 C 35.636719 161.507812 34.9375 166.117188 36.5 171.03125 C 38.0625 175.941406 41.296875 179.296875 43.722656 178.519531 " fill-opacity="1" fill-rule="nonzero"/><path fill="#b8bbb5" d="M 23.566406 176.832031 C 25.683594 176.109375 26.292969 171.832031 24.929688 167.273438 C 23.566406 162.710938 20.746094 159.597656 18.636719 160.316406 C 16.519531 161.035156 15.910156 165.3125 17.273438 169.875 C 18.636719 174.433594 21.453125 177.546875 23.566406 176.832031 " fill-opacity="1" fill-rule="nonzero"/><path fill="#171b3e" d="M 117.074219 118.128906 C 117.074219 118.128906 119.242188 118.90625 121.160156 118.128906 C 123.078125 117.34375 123.054688 116.480469 123.054688 116.480469 C 123.054688 116.480469 123.0625 118.371094 121.160156 119.070312 C 118.101562 120.195312 117.074219 118.128906 117.074219 118.128906 " fill-opacity="1" fill-rule="nonzero"/><path fill="#171b3e" d="M 146.609375 183.480469 C 146.167969 179.882812 144.789062 177.09375 143.527344 177.25 C 142.265625 177.40625 141.601562 180.445312 142.039062 184.042969 C 142.480469 187.636719 143.863281 190.425781 145.125 190.269531 C 146.386719 190.113281 147.050781 187.074219 146.609375 183.480469 " fill-opacity="1" fill-rule="nonzero"/><path fill="#171b3e" d="M 43.710938 169.601562 C 42.945312 166.917969 41.371094 165.019531 40.195312 165.355469 C 39.019531 165.695312 38.691406 168.140625 39.457031 170.824219 C 40.226562 173.507812 41.800781 175.40625 42.976562 175.070312 C 44.148438 174.730469 44.480469 172.285156 43.710938 169.601562 " fill-opacity="1" fill-rule="nonzero"/><path fill="#171b3e" d="M 23 167.476562 C 22.234375 164.792969 20.65625 162.890625 19.484375 163.226562 C 18.308594 163.566406 17.980469 166.015625 18.746094 168.695312 C 19.515625 171.378906 21.089844 173.277344 22.265625 172.941406 C 23.4375 172.605469 23.769531 170.15625 23 167.476562 " fill-opacity="1" fill-rule="nonzero"/><path fill="#ffffff" d="M 143.421875 95.980469 C 143.421875 95.980469 163.394531 95.632812 169.394531 97.023438 C 175.398438 98.410156 176.550781 98.0625 176.550781 98.0625 L 180.363281 113.671875 C 180.363281 113.671875 173.207031 106.503906 167.085938 103.960938 C 160.96875 101.417969 143.421875 95.980469 143.421875 95.980469 " fill-opacity="1" fill-rule="evenodd"/><g clip-path="url(#0c1bdc06d2)"><path fill="#171b3e" d="M 7.574219 149.804688 L -0.0195312 166.039062 L 13.101562 166.859375 L 25.632812 150.421875 L 7.574219 149.804688 " fill-opacity="1" fill-rule="evenodd"/></g><path fill="#ffffff" d="M 213.445312 183.929688 L 213.257812 189.863281 C 211.535156 188.082031 207.851562 186.867188 202.214844 186.21875 L 213.445312 183.929688 " fill-opacity="1" fill-rule="evenodd"/><path fill="#f03f1e" d="M 76.695312 162.433594 L 73.515625 163.832031 L 61.449219 162.855469 L 61.394531 160.277344 L 73.460938 160.75 L 76.695312 162.433594 " fill-opacity="1" fill-rule="evenodd"/><path fill="#f03f1e" d="M 30.789062 163.796875 L 26.589844 154.300781 L 12.210938 152.691406 L 12.359375 151.015625 L 27.035156 152.597656 L 32.667969 162.820312 L 30.789062 163.796875 " fill-opacity="1" fill-rule="nonzero"/><path fill="#f03f1e" d="M 72.722656 79.824219 L 94.476562 73.25 L 94.476562 79.414062 L 83.804688 88.046875 L 85.035156 149.699219 L 5.191406 147.4375 L 3.160156 104.0625 L 73.542969 100.789062 L 72.722656 79.824219 " fill-opacity="1" fill-rule="evenodd"/><path fill="#f03f1e" d="M 98.988281 73.660156 L 159.316406 75.304688 L 159.316406 79.003906 L 98.988281 79.003906 L 98.988281 73.660156 " fill-opacity="1" fill-rule="evenodd"/><path fill="#171b3e" d="M 72.3125 108.605469 L 8.683594 110.640625 L 9.726562 143.105469 L 12.589844 142.894531 L 12.382812 112.726562 L 72.941406 111.476562 L 72.3125 108.605469 " fill-opacity="1" fill-rule="evenodd"/><path fill="#171b3e" d="M 26.964844 111.269531 L 24.503906 111.269531 L 24.503906 143.742188 L 26.964844 143.742188 L 26.964844 111.269531 " fill-opacity="1" fill-rule="nonzero"/><path fill="#171b3e" d="M 41.945312 110.859375 L 39.480469 110.859375 L 39.480469 143.332031 L 41.945312 143.332031 L 41.945312 110.859375 " fill-opacity="1" fill-rule="nonzero"/><path fill="#171b3e" d="M 59.386719 110.652344 L 56.921875 110.652344 L 56.921875 143.125 L 59.386719 143.125 L 59.386719 110.652344 " fill-opacity="1" fill-rule="nonzero"/></svg>